<?xml version="1.0" standalone="no"?><!DOCTYPE svg PUBLIC "-//W3C//DTD SVG 1.1//EN" "http://www.w3.org/Graphics/SVG/1.1/DTD/svg11.dtd"><svg t="1544774442240" class="icon" style="" viewBox="0 0 1024 1024" version="1.1" xmlns="http://www.w3.org/2000/svg" p-id="3649" xmlns:xlink="http://www.w3.org/1999/xlink" width="200" height="200"><defs><style type="text/css"></style></defs><path d="M859.022222 716.8h-108.088889c-17.066667 0-28.444444-11.377778-28.444444-28.444444s11.377778-28.444444 28.444444-28.444445h79.644445V182.044444H352.711111v73.955556c0 17.066667-11.377778 28.444444-28.444444 28.444444s-28.444444-11.377778-28.444445-28.444444V153.6c0-17.066667 11.377778-28.444444 28.444445-28.444444h534.755555c17.066667 0 28.444444 11.377778 28.444445 28.444444v534.755556c0 17.066667-11.377778 28.444444-28.444445 28.444444z" fill="#ffffff" p-id="3650"></path><path d="M659.911111 915.911111H125.155556c-17.066667 0-28.444444-11.377778-28.444445-28.444444V352.711111c0-17.066667 11.377778-28.444444 28.444445-28.444444h534.755555c17.066667 0 28.444444 11.377778 28.444445 28.444444v534.755556c0 17.066667-11.377778 28.444444-28.444445 28.444444z m-506.311111-56.888889h477.866667V381.155556H153.6v477.866666z" fill="#ffffff" p-id="3651"></path><path d="M529.066667 648.533333H256c-17.066667 0-28.444444-11.377778-28.444444-28.444444s11.377778-28.444444 28.444444-28.444445h273.066667c17.066667 0 28.444444 11.377778 28.444444 28.444445s-11.377778 28.444444-28.444444 28.444444z" fill="#ffffff" p-id="3652"></path><path d="M392.533333 790.755556c-17.066667 0-28.444444-11.377778-28.444444-28.444445V483.555556c0-17.066667 11.377778-28.444444 28.444444-28.444445s28.444444 11.377778 28.444445 28.444445v273.066666c0 17.066667-11.377778 34.133333-28.444445 34.133334z" fill="#ffffff" p-id="3653"></path></svg>
