<?xml version="1.0" standalone="no"?><!DOCTYPE svg PUBLIC "-//W3C//DTD SVG 1.1//EN" "http://www.w3.org/Graphics/SVG/1.1/DTD/svg11.dtd"><svg t="1544774457915" class="icon" style="" viewBox="0 0 1024 1024" version="1.1" xmlns="http://www.w3.org/2000/svg" p-id="3761" xmlns:xlink="http://www.w3.org/1999/xlink" width="200" height="200"><defs><style type="text/css"></style></defs><path d="M819.2 175.104H204.8c-17.066667 0-28.444444-11.377778-28.444444-28.444444s11.377778-28.444444 28.444444-28.444445h614.4c17.066667 0 28.444444 11.377778 28.444444 28.444445s-11.377778 28.444444-28.444444 28.444444z" fill="#ffffff" p-id="3762"></path><path d="M620.088889 129.592889H364.088889c-17.066667 0-28.444444-11.377778-28.444445-28.444445s11.377778-28.444444 28.444445-28.444444H625.777778c17.066667 0 28.444444 11.377778 28.444444 28.444444s-17.066667 28.444444-34.133333 28.444445z" fill="#ffffff" p-id="3763"></path><path d="M676.977778 950.044444H347.022222c-68.266667 0-119.466667-56.888889-119.466666-125.155555V261.688889c0-17.066667 11.377778-28.444444 28.444444-28.444445h517.688889c17.066667 0 28.444444 11.377778 28.444444 28.444445v557.511111c0 73.955556-56.888889 130.844444-125.155555 130.844444zM284.444444 290.133333v529.066667c0 39.822222 28.444444 68.266667 62.577778 68.266667h329.955556c34.133333 0 62.577778-28.444444 62.577778-68.266667V290.133333H284.444444z" fill="#ffffff" p-id="3764"></path><path d="M440.888889 799.118222c-17.066667 0-28.444444-11.377778-28.444445-28.444444v-375.466667c0-17.066667 11.377778-28.444444 28.444445-28.444444s28.444444 11.377778 28.444444 28.444444v375.466667c0 11.377778-11.377778 28.444444-28.444444 28.444444zM594.488889 799.118222c-17.066667 0-28.444444-11.377778-28.444445-28.444444v-375.466667c0-17.066667 11.377778-28.444444 28.444445-28.444444s28.444444 11.377778 28.444444 28.444444v375.466667c0 11.377778-11.377778 28.444444-28.444444 28.444444z" fill="#ffffff" p-id="3765"></path></svg>
