<?xml version="1.0" standalone="no"?><!DOCTYPE svg PUBLIC "-//W3C//DTD SVG 1.1//EN" "http://www.w3.org/Graphics/SVG/1.1/DTD/svg11.dtd"><svg t="1544774492922" class="icon" style="" viewBox="0 0 1024 1024" version="1.1" xmlns="http://www.w3.org/2000/svg" p-id="3873" xmlns:xlink="http://www.w3.org/1999/xlink" width="200" height="200"><defs><style type="text/css"></style></defs><path d="M512 1024c-284.444444 0-512-227.555556-512-512s227.555556-512 512-512 512 227.555556 512 512-227.555556 512-512 512" fill="#818999" p-id="3874"></path><path d="M329.955556 722.488889c-5.688889 0-17.066667 0-22.755556-5.688889-11.377778-11.377778-11.377778-28.444444 0-39.822222l364.088889-364.088889c11.377778-11.377778 28.444444-11.377778 39.822222 0s11.377778 28.444444 0 39.822222l-364.088889 364.088889c-5.688889 5.688889-11.377778 5.688889-17.066666 5.688889z" fill="#FFFFFF" p-id="3875"></path><path d="M694.044444 722.488889c-5.688889 0-17.066667 0-22.755555-5.688889L307.2 347.022222c-11.377778-11.377778-11.377778-28.444444 0-39.822222s28.444444-11.377778 39.822222 0l364.088889 364.088889c11.377778 11.377778 11.377778 28.444444 0 39.822222 0 11.377778-11.377778 11.377778-17.066667 11.377778z" fill="#FFFFFF" p-id="3876"></path></svg>