<?xml version="1.0" encoding="UTF-8"?>
<svg width="430px" height="300px" viewBox="0 0 430 300" version="1.1" xmlns="http://www.w3.org/2000/svg" xmlns:xlink="http://www.w3.org/1999/xlink">
    <!-- Generator: Sketch 52.5 (67469) - http://www.bohemiancoding.com/sketch -->
    <title>分组 18@2x</title>
    <desc>Created with Sketch.</desc>
    <g id="sprint-01" stroke="none" stroke-width="1" fill="none" fill-rule="evenodd">
        <g id="3.2.2.4-快速新建知识-自动保存" transform="translate(-348.000000, -299.000000)">
            <g id="分组-18" transform="translate(348.000000, 299.000000)">
                <path d="M0,0 L430,0 L430,300 L0,300 L0,0 Z" id="矩形" fill="#F0F5FA"></path>
                <g id="分组-11" transform="translate(175.000000, 120.000000)" fill-rule="nonzero">
                    <path d="M72.3954023,3.28144736e-15 L7.6045977,3.28144736e-15 C3.40679487,0.00508937553 0.00506675608,3.42200378 -3.55271368e-15,7.6385468 L-3.55271368e-15,52.3614532 C0.00506675608,56.5779962 3.40679487,59.9949106 7.6045977,60 L72.3954023,60 C76.5932051,59.9949106 79.9949332,56.5779962 80,52.3614532 L80,7.6385468 C79.9949332,3.42200378 76.5932051,0.00508937553 72.3954023,3.28144736e-15 Z" id="路径" fill="#ACB3BF"></path>
                    <path d="M18.2068966,11.0837438 C22.8029214,11.0837438 26.5287356,14.8261912 26.5287356,19.442734 C26.5287356,24.0592768 22.8029214,27.8017241 18.2068966,27.8017241 C13.6108717,27.8017241 9.88505747,24.0592768 9.88505747,19.442734 C9.8951879,14.8319088 13.6165556,11.0980583 18.2068966,11.0929803 L18.2068966,11.0837438 Z" id="路径" fill="#F0F5FA"></path>
                    <path d="M11.1816092,53.4513547 L30.5747126,34.544335 C30.9342272,34.1949541 31.4849422,34.1377293 31.908046,34.4057882 L39.6229885,39.2364532 L26.1425287,53.4513547 L11.1816092,53.4513547 Z" id="路径" fill="#F0F5FA"></path>
                    <path d="M73.4804598,52.3614532 C73.4804598,52.9633892 72.994663,53.4513547 72.3954023,53.4513547 L35.154023,53.4513547 L55.6321839,31.9211823 C56.0549861,31.5009225 56.7358185,31.5009225 57.1586207,31.9211823 L73.4896552,47.16133 L73.4804598,52.3614532 Z" id="路径" fill="#F0F5FA"></path>
                </g>
            </g>
        </g>
    </g>
</svg>