<?xml version="1.0" standalone="no"?><!DOCTYPE svg PUBLIC "-//W3C//DTD SVG 1.1//EN" "http://www.w3.org/Graphics/SVG/1.1/DTD/svg11.dtd"><svg t="1585202553632" class="icon" viewBox="0 0 1024 1024" version="1.1" xmlns="http://www.w3.org/2000/svg" p-id="56730" xmlns:xlink="http://www.w3.org/1999/xlink" width="200" height="200"><defs><style type="text/css"></style></defs><path d="M0 0m23.272727 0l977.454546 0q23.272727 0 23.272727 23.272727l0 977.454546q0 23.272727-23.272727 23.272727l-977.454546 0q-23.272727 0-23.272727-23.272727l0-977.454546q0-23.272727 23.272727-23.272727Z" fill="#FFFFFF" p-id="56731"></path><path d="M0 0m23.272727 0l977.454546 0q23.272727 0 23.272727 23.272727l0 977.454546q0 23.272727-23.272727 23.272727l-977.454546 0q-23.272727 0-23.272727-23.272727l0-977.454546q0-23.272727 23.272727-23.272727Z" fill="#F5F5F5" p-id="56732"></path><path d="M302.545455 302.545455m23.272727 0l372.363636 0q23.272727 0 23.272727 23.272727l0 372.363636q0 23.272727-23.272727 23.272727l-372.363636 0q-23.272727 0-23.272727-23.272727l0-372.363636q0-23.272727 23.272727-23.272727Z" fill="#D9D9D9" p-id="56733"></path><path d="M677.934545 654.778182L580.072727 546.909091a5.934545 5.934545 0 0 0-8.610909 0l-34.909091 38.632727a3.607273 3.607273 0 0 1-5.236363 0l-62.836364-68.887273a5.934545 5.934545 0 0 0-8.610909 0L334.545455 654.661818c-1.396364 1.629091-4.305455 5.585455-3.84 8.261818a5.236364 5.236364 0 0 0 5.818181 3.956364H673.861818a7.447273 7.447273 0 0 0 6.865455-5.701818 10.123636 10.123636 0 0 0-2.792728-6.4z" fill="#F5F5F5" p-id="56734"></path><path d="M585.425455 490.472727a46.545455 46.545455 0 1 0-45.847273-46.545454 46.545455 46.545455 0 0 0 45.847273 46.545454" fill="#F5F5F5" p-id="56735"></path></svg>