<?xml version="1.0" standalone="no"?><!DOCTYPE svg PUBLIC "-//W3C//DTD SVG 1.1//EN" "http://www.w3.org/Graphics/SVG/1.1/DTD/svg11.dtd"><svg t="1584934351480" class="icon" viewBox="0 0 1024 1024" version="1.1" xmlns="http://www.w3.org/2000/svg" p-id="52544" xmlns:xlink="http://www.w3.org/1999/xlink" width="200" height="200"><defs><style type="text/css"></style></defs><path d="M365.795556 716.8a73.386667 73.386667 0 1 1-73.386667 73.386667 72.248889 72.248889 0 0 1 72.248889-73.386667z m292.408888 0a73.386667 73.386667 0 1 1 13.084445 146.204444h-13.084445a73.386667 73.386667 0 0 1 0-146.204444zM365.795556 438.613333A73.386667 73.386667 0 1 1 292.408889 512a72.248889 72.248889 0 0 1 72.248889-73.386667z m292.408888 0A73.386667 73.386667 0 1 1 585.386667 512a72.817778 72.817778 0 0 1 72.817777-73.386667zM365.795556 160.995556a73.386667 73.386667 0 1 1-13.084445 0 50.631111 50.631111 0 0 1 13.084445 0z m292.408888 0a73.386667 73.386667 0 1 1-72.817777 73.955555 72.817778 72.817778 0 0 1 72.817777-73.955555z" fill="#8c8c8c" p-id="52545"></path></svg>