<svg xmlns="http://www.w3.org/2000/svg" xmlns:xlink="http://www.w3.org/1999/xlink" viewBox="0 0 120.06 48"><defs><style>.cls-1{fill:none;}.cls-2,.cls-5{fill:#04c;}.cls-2,.cls-3,.cls-4{fill-rule:evenodd;}.cls-3{fill:url(#未命名的渐变_2);}.cls-4{stroke-width:0.5px;fill:url(#未命名的渐变_2-2);stroke:url(#未命名的渐变_2-3);}</style><linearGradient id="未命名的渐变_2" x1="-199.47" y1="488.11" x2="-199.47" y2="487.11" gradientTransform="matrix(43.39, 0, 0, -30.26, 8675.95, 14777.45)" gradientUnits="userSpaceOnUse"><stop offset="0" stop-color="#2195f2"/><stop offset="1" stop-color="#04c"/></linearGradient><linearGradient id="未命名的渐变_2-2" x1="-199.46" y1="488.14" x2="-199.46" y2="487.14" gradientTransform="matrix(43.31, 0, 0, -30.26, 8660.61, 14777.45)" xlink:href="#未命名的渐变_2"/><linearGradient id="未命名的渐变_2-3" x1="-199.46" y1="488.14" x2="-199.46" y2="487.14" gradientTransform="matrix(43.31, 0, 0, -30.26, 8660.61, 14777.45)" xlink:href="#未命名的渐变_2"/></defs><title>logo</title><g id="图层_2" data-name="图层 2"><g id="图层_1-2" data-name="图层 1"><rect id="矩形" class="cls-1" x="0.06" width="120" height="48"/><path id="形状" class="cls-2" d="M70.43,11.66h-3v-.5a.68.68,0,0,0-.68-.69.69.69,0,0,0-.69.69v.5h-6.7v-.5a.69.69,0,0,0-.69-.62.7.7,0,0,0-.69.62v.5H54.75a.7.7,0,0,0,0,1.39h3.16v.17a2.41,2.41,0,0,0,2.41,2.41H65a2.41,2.41,0,0,0,2.41-2.41v-.17h3a.7.7,0,0,0,0-1.39ZM66,13.22a1,1,0,0,1-1,1H60.3a1,1,0,0,1-1-1v-.17h6.75Z"/><path id="Fill-5" class="cls-2" d="M62.66,18.2a2.12,2.12,0,0,0-2.14,2.08v1.2a1,1,0,0,0,1,1.05h2.16a1,1,0,0,0,1-1.05v-1.2a2,2,0,0,0-.55-1.5,2.1,2.1,0,0,0-1.49-.62m1.09,5.71H61.59a2.4,2.4,0,0,1-2.41-2.4V20.28a3.5,3.5,0,1,1,7,0v1.2a2.41,2.41,0,0,1-2.41,2.42"/><path id="路径" class="cls-2" d="M57.27,16.78a.67.67,0,0,0-.68.68v.13H54.44a.7.7,0,0,0-.49.2A.68.68,0,0,0,54.44,19h2.15v1.86l-2.18.92a.68.68,0,0,0-.4.77.7.7,0,0,0,.68.55.62.62,0,0,0,.27,0l1.63-.7V23a.69.69,0,0,0,.68.69A.7.7,0,0,0,58,23V17.46A.7.7,0,0,0,57.27,16.78Z"/><path class="cls-2" d="M71.11,22.28H69.78A1.07,1.07,0,0,1,69,22a1,1,0,0,1-.29-.73v-1.6l2-.74a.7.7,0,0,0,.44-.53.68.68,0,0,0-.92-.76l-1.54.58v-.76a.71.71,0,0,0-.7-.6.7.7,0,0,0-.69.6v3.81a2.4,2.4,0,0,0,2.42,2.4h1.33a.69.69,0,0,0,.62-.69.7.7,0,0,0-.62-.69Z"/><path id="Fill-17" class="cls-2" d="M55.13,28.23a.71.71,0,0,1-.61-.38.7.7,0,0,1,0-.71L56.06,25a.69.69,0,0,1,1.14.78l-1.47,2.17a.68.68,0,0,1-.56.31"/><path id="Fill-19" class="cls-2" d="M70.11,28.23a.66.66,0,0,1-.56-.31l-1.5-2.17a.69.69,0,0,1,.17-.95.7.7,0,0,1,.92.17l1.49,2.17a.69.69,0,0,1-.57,1.09"/><path id="Fill-21" class="cls-2" d="M65,28.27a.7.7,0,0,1-.68-.54L64,26.24a.74.74,0,0,1,.54-.83.72.72,0,0,1,.82.55l.31,1.48a.71.71,0,0,1-.53.82H65"/><path id="Fill-23" class="cls-2" d="M60.21,28.27h-.12a.7.7,0,0,1-.55-.81L59.86,26a.69.69,0,0,1,.81-.54.68.68,0,0,1,.44.3.68.68,0,0,1,.09.52l-.31,1.49a.67.67,0,0,1-.68.54"/><path class="cls-2" d="M95.32,18.62H87.54V13c1.2-.2,2.41-.43,3.49-.65s2.11-.46,3-.61a.68.68,0,0,0,.52-.44.71.71,0,0,0-.11-.67.68.68,0,0,0-.64-.25c-.92.13-1.94.34-3,.56-1.31.27-2.82.56-4.22.77-3.66.56-7.23.83-7.23.83a.72.72,0,0,0-.65.74.69.69,0,0,0,.69.63s3.2-.25,6.73-.75v5.5H78.31a.7.7,0,0,0-.67,1.07.71.71,0,0,0,.67.32H86v7.42a.68.68,0,0,0,.68.69.71.71,0,0,0,.69-.69V20H95.2a.71.71,0,0,0,.67-.32.7.7,0,0,0-.67-1.07Z"/><path id="Fill-31" class="cls-2" d="M117.39,12.13h-13.6a.69.69,0,0,1-.69-.69.68.68,0,0,1,.69-.68h13.6a.72.72,0,0,1,.5.2.63.63,0,0,1,.19.48.68.68,0,0,1-.2.49.7.7,0,0,1-.49.2"/><path class="cls-2" d="M118.68,16.55H102.5a.68.68,0,0,0,0,1.32h2.83l-1.83,9.22a.71.71,0,0,0,.12.58.73.73,0,0,0,.55.25h10.24a3.13,3.13,0,0,0,3.26-3.1,3.28,3.28,0,0,0-6-1.83.72.72,0,0,0,.21,1,.66.66,0,0,0,.51.09.72.72,0,0,0,.44-.3,1.89,1.89,0,0,1,3.48,1,1.77,1.77,0,0,1-.57,1.27,1.82,1.82,0,0,1-1.33.45H105l1.77-8.66h11.91a.69.69,0,0,0,0-1.38Z"/><path id="Fill-77" class="cls-3" d="M36.89,8.23h-.06c-2.35,0-4.58,1.33-6.52,3.88-.65.85-1.39,1.89-2.21,3.1A91.59,91.59,0,0,1,17,28.72a8.75,8.75,0,0,1-2.29-2.29,1,1,0,0,0-1.64,1.08,10.49,10.49,0,0,0,2.56,2.63c-.92.92-2,1.83-3.07,2.75a1,1,0,0,0-.19,1.34v.07a6.2,6.2,0,0,0,2,1.48l.41.18a10.19,10.19,0,0,0,.91.52H10.13a7.91,7.91,0,1,1,1.93-15.57h.64V20.7h0v-.57A8.62,8.62,0,0,1,23.39,13.5a1,1,0,0,0,.95-.25,1,1,0,0,0-.47-1.67,10.33,10.33,0,0,0-1.47-.29,9.66,9.66,0,0,0-1.2-.07,10.59,10.59,0,0,0-9.64,7.61,8.53,8.53,0,0,0-1.43-.11,9.89,9.89,0,0,0,0,19.77H24.79A16.54,16.54,0,0,0,34.65,35a16.45,16.45,0,0,0,5.07-7.59,25.4,25.4,0,0,0,1.14-5.17v-.07c.08-.72.13-1.42.16-2.15V18.41a6.88,6.88,0,0,1,.51-3.67,3.77,3.77,0,0,1,1.56-1.48.91.91,0,0,0,.52-.64,1,1,0,0,0-.19-.82,11.11,11.11,0,0,0-2.08-2A7.62,7.62,0,0,0,36.89,8.23ZM30,15.93c.7-1,1.33-1.9,1.84-2.62,1.59-2,3.27-3.09,5-3.12a5.67,5.67,0,0,1,3.35,1.21,7.74,7.74,0,0,1,1,.82,5.54,5.54,0,0,0-1.26,1.55,8.65,8.65,0,0,0-.76,4.73v1.41A8.52,8.52,0,0,1,39,21.34a6.95,6.95,0,0,1-9-5.43ZM18.84,29.67A87.41,87.41,0,0,0,28.45,18a9,9,0,0,0,10.22,5.5,20,20,0,0,1-.82,3.31,14.36,14.36,0,0,1-4.45,6.67,14.8,14.8,0,0,1-8.76,3.1h-.46a16.55,16.55,0,0,1-8.55-2.28l-.42-.24-.66-.41,2.75-2.47a10.58,10.58,0,0,0,13.14-3.57,1,1,0,0,0-.32-1.27,1,1,0,0,0-1.3.16,8.31,8.31,0,0,1-5.41,3.61,8.69,8.69,0,0,1-1.61.15,8.29,8.29,0,0,1-3-.57Z"/><path class="cls-4" d="M36.79,8.23H36.7c-2.34,0-4.53,1.33-6.5,3.88C29.54,13,28.82,14,28,15.21A90.74,90.74,0,0,1,17,28.75a8.42,8.42,0,0,1-2.25-2.32,1,1,0,0,0-.88-.44,1,1,0,0,0-.76,1.53,10.56,10.56,0,0,0,2.5,2.62c-.92.92-2,1.83-3.07,2.75h0a1,1,0,0,0-.17,1.31h0v.07a6.38,6.38,0,0,0,2,1.49l.37.22c.32.18.64.35.92.52H10.13a7.93,7.93,0,0,1,0-15.85,7.77,7.77,0,0,1,1.92.24h.67v-.06h0l0-.08h0v-.06h0v-.13a8.59,8.59,0,0,1,8.42-7,8.72,8.72,0,0,1,1,.06,7.22,7.22,0,0,1,1.67-.16,1,1,0,0,0,.51-1.91A9.93,9.93,0,0,0,23,11.3a10.36,10.36,0,0,0-1.25-.08,10.56,10.56,0,0,0-10.07,7.6,10.84,10.84,0,0,0-1.51-.1,9.89,9.89,0,0,0,0,19.77H24.79A16.42,16.42,0,0,0,34.62,35a16.5,16.5,0,0,0,5.06-7.59,25.46,25.46,0,0,0,1.12-5.18v-.07c.08-.71.13-1.42.16-2.14V18.41a6.88,6.88,0,0,1,.51-3.67A3.81,3.81,0,0,1,43,13.27a1,1,0,0,0,.51-.69,1,1,0,0,0-.2-.82,11.08,11.08,0,0,0-2.06-1.93A7.54,7.54,0,0,0,36.79,8.23ZM29.9,15.92c.71-1,1.3-1.89,1.88-2.61,1.58-2.05,3.26-3.09,5-3.11a5.58,5.58,0,0,1,3.35,1.19,9.79,9.79,0,0,1,1,.82,5.41,5.41,0,0,0-1.31,1.55A8.63,8.63,0,0,0,39,18.48v1.45c0,.46,0,.91-.09,1.43a7,7,0,0,1-9-5.44ZM18.79,29.66A87.68,87.68,0,0,0,28.45,18a8.92,8.92,0,0,0,8.3,5.67,8.64,8.64,0,0,0,1.9-.21,23.4,23.4,0,0,1-.82,3.3,14.6,14.6,0,0,1-4.44,6.69,14.73,14.73,0,0,1-8.74,3.09h-.46a16.5,16.5,0,0,1-8.51-2.24l-.43-.24-.7-.41c1-.83,1.83-1.65,2.75-2.47a10.19,10.19,0,0,0,4.41,1,10.86,10.86,0,0,0,2-.18,10.44,10.44,0,0,0,6.61-4.38A1,1,0,0,0,30,26.25a1,1,0,0,0-.74-.16,1,1,0,0,0-.62.41,8.44,8.44,0,0,1-5.41,3.57,8.58,8.58,0,0,1-1.6.14,8.27,8.27,0,0,1-2.87-.51Z"/><g id="Yanqian-Cloud"><g id="分组"><polygon class="cls-2" points="55.73 35.49 53.33 31.67 54.32 31.67 56.17 34.75 56.24 34.75 58.03 31.72 58.99 31.72 56.58 35.53 56.58 38.37 55.73 38.37 55.73 35.49"/><path class="cls-5" d="M63.08,34.67v3.67h-.73l-.14-.79a2.06,2.06,0,0,1-1.83.92c-1.21,0-1.83-.57-1.83-1.56,0-1.2.81-1.65,2.06-1.65h1.58v-.43c0-.63-.21-1.06-1.27-1.06a6.12,6.12,0,0,0-1.21.11v-.73a9.71,9.71,0,0,1,1.21-.08C62.65,33.06,63.08,33.73,63.08,34.67Zm-.83,2.1V36H60.72c-.85,0-1.2.17-1.2,1,0,.57.27.86,1,.86a1.83,1.83,0,0,0,1.73-1Z"/><path class="cls-2" d="M69.1,34.75v3.61h-.84V35.07c0-.81-.18-1.27-1-1.27a1.43,1.43,0,0,0-1.6,1v3.52h-.81V33.15h.81v.76a1.74,1.74,0,0,1,1.68-.85C68.76,33.06,69.1,33.77,69.1,34.75Z"/><path class="cls-5" d="M75.17,33.15v7.14h-.83V37.38a1.55,1.55,0,0,1-1.71,1.08c-1.72,0-2.15-1.11-2.15-2.7s.43-2.7,2.15-2.7c1,0,1.5.41,1.71,1v-.92Zm-.81,2.61c0-1.2-.35-2-1.61-2s-1.38,1-1.38,2,.17,2,1.38,2,1.63-.76,1.63-2Z"/><path class="cls-5" d="M76.88,31.71c0-.43.16-.48.62-.48s.64,0,.64.48-.17.49-.64.49S76.88,32.15,76.88,31.71ZM77,33.15H78v5.21H77Z"/><path class="cls-5" d="M83.65,34.67v3.67H83l-.12-.79a2.11,2.11,0,0,1-1.83.92c-1.21,0-1.83-.57-1.83-1.56,0-1.2.8-1.65,2.06-1.65h1.59v-.43c0-.63-.23-1.06-1.29-1.06a6.12,6.12,0,0,0-1.21.11v-.73a8.76,8.76,0,0,1,1.25-.09C83.22,33.06,83.65,33.73,83.65,34.67Zm-.81,2.1V36H81.29c-.85,0-1.2.17-1.2,1,0,.57.28.86,1,.86A1.83,1.83,0,0,0,82.84,36.77Z"/><path class="cls-2" d="M89.67,34.75v3.61h-.84V35.07c0-.81-.16-1.27-1-1.27a1.4,1.4,0,0,0-1.57,1v3.52h-.84V33.15h.84v.76a1.69,1.69,0,0,1,1.65-.85C89.29,33.06,89.67,33.77,89.67,34.75Z"/><path class="cls-2" d="M93.69,35c0-2.59,1.2-3.44,3.13-3.44a4.2,4.2,0,0,1,1.45.19v.8a3.65,3.65,0,0,0-1.42-.23c-1.53,0-2.26.66-2.26,2.66s.69,2.67,2.17,2.67a4.53,4.53,0,0,0,1.59-.25v.74a3.79,3.79,0,0,1-1.62.3C94.89,38.46,93.69,37.81,93.69,35Z"/><path class="cls-2" d="M99.64,37.31V31h.83v6c0,.52.15.63.48.63a1.34,1.34,0,0,0,.4,0v.67a2.6,2.6,0,0,1-.56.06C100,38.42,99.64,38.1,99.64,37.31Z"/><path class="cls-5" d="M102.09,35.76c0-2.07.91-2.7,2.4-2.7s2.41.63,2.41,2.7-.85,2.7-2.41,2.7S102.09,37.84,102.09,35.76Zm3.93,0c0-1.52-.38-2-1.53-2s-1.51.48-1.51,2,.4,2,1.51,2,1.53-.45,1.53-2Z"/><path class="cls-2" d="M112.51,33.15v5.21h-.7l-.11-.74a1.67,1.67,0,0,1-1.64.84c-1.35,0-1.75-.7-1.75-1.71v-3.6h.84v3.29c0,.79.17,1.21,1,1.21a1.38,1.38,0,0,0,1.54-1V33.15Z"/><path class="cls-5" d="M118.65,31v7.33h-.72l-.12-.85a1.62,1.62,0,0,1-1.69.91c-1.72,0-2.14-1.11-2.14-2.7S114.4,33,116.12,33c1,0,1.48.39,1.69,1V31Zm-.81,4.73c0-1.2-.34-2-1.59-2s-1.4,1-1.4,2,.17,2,1.4,2S117.84,37,117.84,35.76Z"/></g></g></g></g></svg>