<?xml version="1.0" encoding="UTF-8"?>
<svg width="288px" height="168px" viewBox="0 0 288 168" version="1.1" xmlns="http://www.w3.org/2000/svg" xmlns:xlink="http://www.w3.org/1999/xlink">
    <!-- Generator: Sketch 52.5 (67469) - http://www.bohemiancoding.com/sketch -->
    <title>分组 19@3x</title>
    <desc>Created with Sketch.</desc>
    <defs>
        <polygon id="path-1" points="0 0 288 0 288 168 0 168"></polygon>
    </defs>
    <g id="sprint-01" stroke="none" stroke-width="1" fill="none" fill-rule="evenodd">
        <g id="3.2.2.4-快速新建知识-自动保存" transform="translate(-805.000000, -299.000000)">
            <g id="分组-19" transform="translate(805.000000, 299.000000)">
                <g id="Group-24">
                    <mask id="mask-2" fill="white">
                        <use xlink:href="#path-1"></use>
                    </mask>
                    <use id="Rectangle-17" fill="#F0F5FA" xlink:href="#path-1"></use>
                </g>
                <g id="分组-11-copy" transform="translate(119.000000, 65.000000)" fill-rule="nonzero">
                    <path d="M45.2471264,2.0509046e-15 L4.75287356,2.0509046e-15 C2.1292468,0.00318085971 0.00316672255,2.13875236 -3.55271368e-15,4.77409175 L-3.55271368e-15,32.7259083 C0.00316672255,35.3612476 2.1292468,37.4968191 4.75287356,37.5 L45.2471264,37.5 C47.8707532,37.4968191 49.9968333,35.3612476 50,32.7259083 L50,4.77409175 C49.9968333,2.13875236 47.8707532,0.00318085971 45.2471264,2.0509046e-15 Z" id="路径" fill="#ACB3BF"></path>
                    <path d="M11.3793103,6.9273399 C14.2518259,6.9273399 16.5804598,9.2663695 16.5804598,12.1517087 C16.5804598,15.037048 14.2518259,17.3760776 11.3793103,17.3760776 C8.50679484,17.3760776 6.17816092,15.037048 6.17816092,12.1517087 C6.18449244,9.26994302 8.51034722,6.93628643 11.3793103,6.93311268 L11.3793103,6.9273399 Z" id="路径" fill="#F0F5FA"></path>
                    <path d="M6.98850575,33.4070967 L19.1091954,21.5902094 C19.333892,21.3718463 19.6780889,21.3360808 19.9425287,21.5036176 L24.7643678,24.5227833 L16.3390805,33.4070967 L6.98850575,33.4070967 Z" id="路径" fill="#F0F5FA"></path>
                    <path d="M45.9252874,32.7259083 C45.9252874,33.1021182 45.6216644,33.4070967 45.2471264,33.4070967 L21.9712644,33.4070967 L34.7701149,19.9507389 C35.0343663,19.6880766 35.4598865,19.6880766 35.7241379,19.9507389 L45.9310345,29.4758313 L45.9252874,32.7259083 Z" id="路径" fill="#F0F5FA"></path>
                </g>
            </g>
        </g>
    </g>
</svg>